<?xml version="1.0" standalone="no"?>
<!DOCTYPE svg PUBLIC "-//W3C//DTD SVG 20010904//EN"
 "http://www.w3.org/TR/2001/REC-SVG-20010904/DTD/svg10.dtd">
<svg version="1.0" xmlns="http://www.w3.org/2000/svg"
 width="260.000000pt" height="260.000000pt" viewBox="0 0 260.000000 260.000000"
 preserveAspectRatio="xMidYMid meet">
<metadata>
Created by potrace 1.11, written by Peter Selinger 2001-2013
</metadata>
<g transform="translate(0.000000,260.000000) scale(0.100000,-0.100000)"
fill="#000000" stroke="none">
<path d="M635 2075 c-7 -5 -15 -19 -18 -30 -3 -11 -31 -92 -62 -180 -53 -150
-99 -282 -273 -780 -38 -110 -111 -316 -161 -459 -50 -142 -91 -260 -91 -263
0 -2 66 -2 146 -1 l147 3 113 325 c63 179 125 357 138 395 84 239 113 323 151
433 23 68 44 125 47 127 2 2 22 -51 45 -118 23 -67 78 -228 123 -357 45 -129
90 -260 100 -290 10 -30 51 -147 90 -260 40 -113 75 -216 79 -230 l7 -25 150
-3 150 -2 -1 862 0 863 -140 1 -140 1 -5 -454 -5 -454 -42 123 c-23 68 -74
215 -113 328 -40 113 -91 261 -114 330 l-43 125 -133 0 c-76 0 -138 -4 -145
-10z"/>
<path d="M2265 1721 c1 -201 -1 -372 -3 -378 -3 -10 -78 -13 -328 -13 l-324 0
0 -95 0 -95 73 0 c39 -1 185 -1 323 -1 230 0 252 -1 256 -17 2 -9 3 -185 3
-389 l0 -373 140 0 141 0 -2 858 c-1 471 -2 860 -3 864 0 4 -63 6 -139 6
l-138 -1 1 -366z"/>
<path d="M582 818 c-18 -50 -30 -93 -28 -96 4 -3 199 -5 402 -2 l41 0 -35 95
-36 95 -156 0 -157 0 -31 -92z"/>
</g>
</svg>
