<svg width="595" height="634" xmlns="http://www.w3.org/2000/svg"><defs/><g fill="#bcbcbc" fill-opacity="0.2" fill-rule="nonzero"><g transform="translate(7 7)"><circle cx="3" cy="3" r="3"/><circle cx="56.625" cy="3" r="3"/></g><g transform="translate(7 58)"><circle cx="3" cy="3" r="3"/><circle cx="56.625" cy="3" r="3"/></g><g transform="translate(110 7)"><circle cx="3" cy="3" r="3"/><circle cx="56.625" cy="3" r="3"/></g><g transform="translate(110 58)"><circle cx="3" cy="3" r="3"/><circle cx="56.625" cy="3" r="3"/></g><g transform="translate(7 109)"><circle cx="3" cy="3" r="3"/><circle cx="56.625" cy="3" r="3"/></g><g transform="translate(7 160)"><circle cx="3" cy="3" r="3"/><circle cx="56.625" cy="3" r="3"/></g><g transform="translate(110 109)"><circle cx="3" cy="3" r="3"/><circle cx="56.625" cy="3" r="3"/></g><g transform="translate(110 160)"><circle cx="3" cy="3" r="3"/><circle cx="56.625" cy="3" r="3"/></g><g transform="translate(213 7)"><circle cx="3" cy="3" r="3"/><circle cx="56.625" cy="3" r="3"/></g><g transform="translate(213 58)"><circle cx="3" cy="3" r="3"/><circle cx="56.625" cy="3" r="3"/></g><g transform="translate(316 7)"><circle cx="3" cy="3" r="3"/><circle cx="56.625" cy="3" r="3"/></g><g transform="translate(316 58)"><circle cx="3" cy="3" r="3"/><circle cx="56.625" cy="3" r="3"/></g><g transform="translate(213 109)"><circle cx="3" cy="3" r="3"/><circle cx="56.625" cy="3" r="3"/></g><g transform="translate(213 160)"><circle cx="3" cy="3" r="3"/><circle cx="56.625" cy="3" r="3"/></g><g transform="translate(316 109)"><circle cx="3" cy="3" r="3"/><circle cx="56.625" cy="3" r="3"/></g><g transform="translate(316 160)"><circle cx="3" cy="3" r="3"/><circle cx="56.625" cy="3" r="3"/></g><g transform="translate(7 211)"><circle cx="3" cy="3" r="3"/><circle cx="56.625" cy="3" r="3"/></g><g transform="translate(7 262)"><circle cx="3" cy="3" r="3"/><circle cx="56.625" cy="3" r="3"/></g><g transform="translate(110 211)"><circle cx="3" cy="3" r="3"/><circle cx="56.625" cy="3" r="3"/></g><g transform="translate(110 262)"><circle cx="3" cy="3" r="3"/><circle cx="56.625" cy="3" r="3"/></g><g transform="translate(7 313)"><circle cx="3" cy="3" r="3"/><circle cx="56.625" cy="3" r="3"/></g><g transform="translate(7 364)"><circle cx="3" cy="3" r="3"/><circle cx="56.625" cy="3" r="3"/></g><g transform="translate(110 313)"><circle cx="3" cy="3" r="3"/><circle cx="56.625" cy="3" r="3"/></g><g transform="translate(110 364)"><circle cx="3" cy="3" r="3"/><circle cx="56.625" cy="3" r="3"/></g><g transform="translate(213 211)"><circle cx="3" cy="3" r="3"/><circle cx="56.625" cy="3" r="3"/></g><g transform="translate(213 262)"><circle cx="3" cy="3" r="3"/><circle cx="56.625" cy="3" r="3"/></g><g transform="translate(316 211)"><circle cx="3" cy="3" r="3"/><circle cx="56.625" cy="3" r="3"/></g><g transform="translate(316 262)"><circle cx="3" cy="3" r="3"/><circle cx="56.625" cy="3" r="3"/></g><g transform="translate(213 313)"><circle cx="3" cy="3" r="3"/><circle cx="56.625" cy="3" r="3"/></g><g transform="translate(213 364)"><circle cx="3" cy="3" r="3"/><circle cx="56.625" cy="3" r="3"/></g><g transform="translate(316 313)"><circle cx="3" cy="3" r="3"/><circle cx="56.625" cy="3" r="3"/></g><g transform="translate(316 364)"><circle cx="3" cy="3" r="3"/><circle cx="56.625" cy="3" r="3"/></g><g transform="translate(419 7)"><circle cx="3" cy="3" r="3"/><circle cx="56.625" cy="3" r="3"/></g><g transform="translate(419 58)"><circle cx="3" cy="3" r="3"/><circle cx="56.625" cy="3" r="3"/></g><g transform="translate(522 7)"><circle cx="3" cy="3" r="3"/><circle cx="56.625" cy="3" r="3"/></g><g transform="translate(522 58)"><circle cx="3" cy="3" r="3"/><circle cx="56.625" cy="3" r="3"/></g><g transform="translate(419 109)"><circle cx="3" cy="3" r="3"/><circle cx="56.625" cy="3" r="3"/></g><g transform="translate(419 160)"><circle cx="3" cy="3" r="3"/><circle cx="56.625" cy="3" r="3"/></g><g transform="translate(522 109)"><circle cx="3" cy="3" r="3"/><circle cx="56.625" cy="3" r="3"/></g><g transform="translate(522 160)"><circle cx="3" cy="3" r="3"/><circle cx="56.625" cy="3" r="3"/></g><g transform="translate(419 211)"><circle cx="3" cy="3" r="3"/><circle cx="56.625" cy="3" r="3"/></g><g transform="translate(419 262)"><circle cx="3" cy="3" r="3"/><circle cx="56.625" cy="3" r="3"/></g><g transform="translate(522 211)"><circle cx="3" cy="3" r="3"/><circle cx="56.625" cy="3" r="3"/></g><g transform="translate(522 262)"><circle cx="3" cy="3" r="3"/><circle cx="56.625" cy="3" r="3"/></g><g transform="translate(419 313)"><circle cx="3" cy="3" r="3"/><circle cx="56.625" cy="3" r="3"/></g><g transform="translate(419 364)"><circle cx="3" cy="3" r="3"/><circle cx="56.625" cy="3" r="3"/></g><g transform="translate(522 313)"><circle cx="3" cy="3" r="3"/><circle cx="56.625" cy="3" r="3"/></g><g transform="translate(522 364)"><circle cx="3" cy="3" r="3"/><circle cx="56.625" cy="3" r="3"/></g></g></svg>